<?xml version="1.0" standalone="no"?><!DOCTYPE svg PUBLIC "-//W3C//DTD SVG 1.1//EN" "http://www.w3.org/Graphics/SVG/1.1/DTD/svg11.dtd"><svg t="1555382309496" class="icon" style="" viewBox="0 0 1024 1024" version="1.1" xmlns="http://www.w3.org/2000/svg" p-id="3628" xmlns:xlink="http://www.w3.org/1999/xlink" width="200" height="200"><defs><style type="text/css"></style></defs><path d="M633.7 722.2H390.9L269.5 512l121.4-210.3h242.8L755.1 512 633.7 722.2z m-208.2-60H599L685.8 512 599 361.7H425.5L338.8 512l86.7 150.2z" fill="#2A36B1" p-id="3629"></path><path d="M720.4 151.5l-104 180.2H408.2L304.1 151.5l0.3-0.5c61.2-35.3 132.2-55.4 207.9-55.4 75.7 0 146.7 20.2 207.9 55.4l0.2 0.5z" fill="#5677FC" p-id="3630"></path><path d="M633.7 361.7H390.9L269.5 151.5l12.9-22.5 7-4C356.9 86.1 434 65.6 512.3 65.6c78.3 0 155.4 20.5 222.8 59.4l6.9 4 13 22.4-121.3 210.3z m-208.2-60H599l80-138.5c-51.8-24.7-108.8-37.6-166.7-37.6-57.9 0-114.9 12.9-166.7 37.7l79.9 138.4zM512.3 959.7c-77.9 0-154.6-20.4-221.9-58.9l-7-4-14-24.4 9-15.1 112.5-194.9h242.8L755 872.7l-18.5 32.1H727c-65.5 35.9-139.5 54.9-214.7 54.9z m-167.2-97.9c51.9 24.9 109.2 37.9 167.2 37.9 58 0 115.3-13 167.2-37.9L599 722.4H425.5l-80.4 139.4z" fill="#2A36B1" p-id="3631"></path><path d="M929.3 513.3c-0.3 153.1-83 286.8-206.2 359.2h-2.8l-104-180.3L720.4 512h208.1l0.8 1.3z" fill="#5677FC" p-id="3632"></path><path d="M731.3 902.5h-28.2L581.7 692.2 703.1 482h242.8l13.5 23.3v8.1c-0.1 79.2-21.3 157-61.1 225-38.7 66-93.9 121.3-159.9 160l-7.1 4.1zM651 692.2l80.5 139.4c96.1-66.3 157.8-173.4 166.7-289.7H737.7L651 692.2z" fill="#2A36B1" p-id="3633"></path><path d="M945.8 542H703.1L581.7 331.7l121.4-210.3H729l7 4c66.4 38.4 122.1 93.6 161.2 159.7 40.3 68 61.7 145.9 62.1 225.4v8.1L945.8 542z m-208.1-60h160.4c-9.3-116.1-71.1-222.8-167.2-288.8l-80 138.5L737.7 482z" fill="#2A36B1" p-id="3634"></path><path d="M408.6 692.2l-0.1 0.2-104 180.1h-3.1C178.4 800.3 95.7 666.8 95.2 514l1.2-2h208.1l104.1 180.2z" fill="#5677FC" p-id="3635"></path><path d="M321.9 902.5h-28.6l-7-4.1c-65.8-38.7-121.1-93.9-159.7-159.7-39.8-67.8-61-145.5-61.3-224.6V506l13.9-24H322l121.6 210.6-9.1 15.1-112.6 194.8zM126.4 542c8.9 116.3 70.8 223.6 167 289.9L374 692.2 287.2 542H126.4z" fill="#2A36B1" p-id="3636"></path><path d="M321.9 542H79.1l-13.9-24 0.1-8.2c0.5-79.3 22-157.1 62.3-224.9 39.1-65.9 94.8-121 161-159.4l7-4h26.3l121.4 210.3L321.9 542z m-195.4-60h160.8L374 331.7 293.9 193c-96.2 66-158.1 172.8-167.4 289z" fill="#2A36B1" p-id="3637"></path><path d="M616.5 331.7H408.3L304.1 512.1l104.2 180.3h208.2l104.2-180.3z" fill="#5677FC" p-id="3638"></path><path d="M633.8 722.4H390.9L269.5 512.1 391 301.7h242.9l121.5 210.4-121.6 210.3z m-208.2-60h173.6L686 512.1l-86.8-150.4H425.6l-86.8 150.4 86.8 150.3z" fill="#2A36B1" p-id="3639"></path></svg>